<svg width="35" height="35" viewBox="0 0 35 35" fill="none" xmlns="http://www.w3.org/2000/svg">
<path d="M34.0217 2.1739H33.5507V0.543457C33.5507 0.243291 33.3074 0 33.0072 0H28.8044C28.5041 0 28.2609 0.243359 28.2609 0.543457V2.1739H27.645C27.3447 2.1739 27.1015 2.41726 27.1015 2.71735V4.45648C27.1015 4.75665 27.3448 4.99994 27.645 4.99994H28.2609V6.63038C28.2609 6.93055 28.5042 7.17384 28.8044 7.17384C29.1046 7.17384 29.3478 6.93048 29.3478 6.63038V5.00001H32.4638V12.8623C32.4638 16.1587 29.7819 18.8405 26.4855 18.8405H22.3914V15.5796H26.6305C28.1288 15.5796 29.3479 14.3607 29.3479 12.8622V9.52889C29.3479 9.22872 29.1046 8.98543 28.8044 8.98543C28.5042 8.98543 28.261 9.22879 28.261 9.52889V12.8622C28.261 13.7613 27.5295 14.4927 26.6305 14.4927H22.3914V13.7318C22.3914 13.4317 22.1481 13.1884 21.848 13.1884H20.1088C19.8086 13.1884 19.5654 13.4317 19.5654 13.7318V14.4927H18.3333V10.6521H18.9164C19.1537 11.4875 19.9229 12.1014 20.8332 12.1014C21.932 12.1014 22.826 11.2075 22.826 10.1086C22.826 9.00983 21.932 8.1159 20.8332 8.1159C19.9229 8.1159 19.1537 8.72983 18.9164 9.56519H16.6631C16.4258 8.72983 15.6567 8.1159 14.7463 8.1159C13.6476 8.1159 12.7536 9.00983 12.7536 10.1086C12.7536 11.2075 13.6476 12.1014 14.7463 12.1014C15.6567 12.1014 16.4259 11.4875 16.6631 10.6521H17.2463V14.4927H16.0144V13.7318C16.0144 13.4317 15.7711 13.1884 15.4709 13.1884H13.7318C13.4316 13.1884 13.1883 13.4317 13.1883 13.7318V14.4927H8.65933C4.76353 14.4927 1.59411 17.6621 1.59411 21.5579V24.0216C1.59411 24.3218 1.8374 24.5651 2.13757 24.5651C2.43781 24.5651 2.68103 24.3217 2.68103 24.0216V21.5579C2.68103 18.2615 5.3629 15.5796 8.65926 15.5796H13.1883V18.8405H8.51434C7.0159 18.8405 5.79692 20.0595 5.79692 21.5579V29.8551H2.68116V26.9203C2.68116 26.6201 2.43787 26.3768 2.13771 26.3768C1.83747 26.3768 1.59425 26.6202 1.59425 26.9203V29.8551H0.978333C0.678098 29.8551 0.434875 30.0984 0.434875 30.3985V32.1377C0.434875 32.4378 0.678167 32.6811 0.978333 32.6811H1.59425V34.3116C1.59425 34.6117 1.83754 34.855 2.13771 34.855H6.34058C6.64081 34.855 6.88404 34.6116 6.88404 34.3116V32.6811H7.35503C7.65527 32.6811 7.89849 32.4378 7.89849 32.1377V30.3985C7.89849 30.0984 7.6552 29.8551 7.35503 29.8551H6.88404V21.5579C6.88404 20.6589 7.61548 19.9275 8.51448 19.9275H13.1884V20.6883C13.1884 20.9885 13.4317 21.2318 13.7319 21.2318H15.471C15.7712 21.2318 16.0145 20.9884 16.0145 20.6883V19.9275H19.5652V20.6883C19.5652 20.9885 19.8085 21.2318 20.1086 21.2318H21.8478C22.148 21.2318 22.3912 20.9884 22.3912 20.6883V19.9275H26.4854C30.3812 19.9275 33.5506 16.7581 33.5506 12.8623V5.00001H34.0216C34.3218 5.00001 34.5651 4.75665 34.5651 4.45655V2.71742C34.5652 2.41726 34.3219 2.1739 34.0217 2.1739ZM20.8333 9.20288C21.3328 9.20288 21.7391 9.60921 21.7391 10.1087C21.7391 10.6082 21.3328 11.0145 20.8333 11.0145C20.3338 11.0145 19.9276 10.6081 19.9276 10.1087C19.9276 9.60928 20.3338 9.20288 20.8333 9.20288ZM14.7463 11.0145C14.2468 11.0145 13.8405 10.6081 13.8405 10.1087C13.8405 9.60928 14.2468 9.20288 14.7463 9.20288C15.2458 9.20288 15.6521 9.60921 15.6521 10.1087C15.6521 10.6082 15.2458 11.0145 14.7463 11.0145ZM5.79705 33.7681H2.68116V32.6811H5.79712V33.7681H5.79705ZM6.81157 31.5942H1.52172V30.9421H6.81157V31.5942V31.5942ZM14.9275 20.145H14.2754V14.2754H14.9275V20.145ZM19.5652 18.8406H16.0145V15.5797H19.5652V18.8406ZM21.3043 20.145H20.6522V14.2754H21.3043V20.145ZM29.3478 1.08698H32.4638V2.17396H29.3478V1.08698ZM33.4782 3.91303H28.1884V3.26088H33.4782V3.91303Z" fill="black"/>
<path d="M20.6197 25.486C20.4677 25.2271 20.1347 25.1404 19.8759 25.2922C19.617 25.4441 19.5303 25.7771 19.6821 26.036C21.2197 28.6569 21.4493 29.8035 21.4493 30.2536C21.4493 32.2715 19.8077 33.913 17.7899 33.913C15.772 33.913 14.1304 32.2715 14.1304 30.2536C14.1304 28.6907 16.4683 24.9887 17.7886 23.0808C17.9816 23.3603 18.2256 23.7199 18.4949 24.1305C18.6595 24.3815 18.9965 24.4515 19.2474 24.2869C19.4984 24.1223 19.5684 23.7853 19.4038 23.5343C18.7471 22.533 18.2505 21.8473 18.2297 21.8186C18.0163 21.5243 17.5633 21.5243 17.3498 21.8186C16.9091 22.4263 13.0435 27.8262 13.0435 30.2536C13.0435 32.8708 15.1726 35 17.7899 35C20.4071 35 22.5362 32.8708 22.5362 30.2536C22.5362 29.2438 21.9093 27.6843 20.6197 25.486Z" fill="black"/>
<path d="M19.1197 26.366C18.9677 26.1071 18.6348 26.0204 18.3759 26.1723C18.117 26.3241 18.0303 26.6571 18.1821 26.916C19.6561 29.4287 19.7087 30.2274 19.7101 30.2535C19.7101 31.3123 18.8487 32.1738 17.7899 32.1738C17.4896 32.1738 17.2464 32.4172 17.2464 32.7173C17.2464 33.0173 17.4897 33.2607 17.7899 33.2607C19.448 33.2607 20.7971 31.9116 20.7971 30.2534C20.7971 30.0123 20.6762 29.0193 19.1197 26.366Z" fill="black"/>
</svg>
