<svg width="35" height="35" viewBox="0 0 35 35" fill="none" xmlns="http://www.w3.org/2000/svg">
<path d="M18.6293 7.7055H21.4091V8.47307H18.6293V7.7055ZM21.4024 8.97226H18.6237V9.74204H21.4024V8.97226V8.97226ZM15.5612 7.7055H12.7792V8.47307H15.5612V7.7055ZM35 22.7565V24.603H30.8562V30.1163H28.4862V24.603H6.28964V30.3018H3.91736V24.603H0V22.7565H5.08693L2.3016 22.1159L6.29185 4.69818L11.4307 5.87328V5.25922H16.9119V22.7576H17.2764V5.08473H22.7565V22.7565H23.4754V5.08473H28.96V22.7565H35ZM7.0804 22.4439L10.7382 6.48623L6.85621 5.59717L3.19949 21.556L7.0804 22.4439ZM11.4307 6.82528L7.7795 22.7587H11.4307V6.82528ZM16.162 20.6161H12.1806V22.3821H16.162V20.6161ZM12.841 18.605V19.3206H15.5932V18.605H12.841ZM15.5932 18.1257V17.4111H12.841V18.1257H15.5932ZM16.162 6.01133H12.1806V16.1145H16.162V6.01133ZM22.0066 22.2065V5.83573H18.024V22.2065H22.0066ZM28.2101 5.83573H24.2286V22.2065H28.2101V5.83573ZM27.2349 7.34767H26.4673V16.4359H27.2349V7.34767ZM25.967 7.3289H25.1972V16.416H25.967V7.3289ZM8.72267 7.97719L6.64195 17.061L7.33552 17.22L9.41624 8.13622L8.72267 7.97719ZM7.33442 7.7055L5.2526 16.7882L5.94617 16.9472L8.02799 7.86454L7.33442 7.7055ZM21.4024 17.4089H18.6237V18.1754H21.4024V17.4089V17.4089ZM18.6293 19.5404H21.4091V18.7739H18.6293V19.5404Z" fill="black"/>
</svg>
