<svg width="35" height="35" viewBox="0 0 35 35" fill="none" xmlns="http://www.w3.org/2000/svg">
<path d="M1.83594 22.5013V25.7898C1.83594 27.8004 3.4659 29.4303 5.47655 29.4303H29.5233C31.534 29.4303 33.1639 27.8004 33.1639 25.7898V22.5013H1.83594V22.5013Z" fill="#F6A230"/>
<path d="M7.56589 15.9533H33.1698C33.1698 10.2185 28.5208 5.56958 22.7861 5.56958H12.2139C6.47925 5.56958 1.8302 10.2185 1.8302 15.9533H6.05577" fill="#F6A230"/>
<path d="M18.6401 22.5012L11.3706 26.4292L4.10101 22.5012H18.6401Z" fill="#FFE285"/>
<path d="M6.05589 15.9533H1.83593C1.27845 15.9533 0.826599 16.4052 0.826599 16.9626C0.826599 17.52 1.27845 17.972 1.83593 17.972C4.44643 17.972 4.44643 19.2251 7.05694 19.2251C9.66745 19.2251 9.66738 17.972 12.278 17.972C14.8886 17.972 14.8886 19.2251 17.4992 19.2251C17.5014 19.2251 17.5036 19.2249 17.5057 19.2249C17.5079 19.2249 17.51 19.2251 17.5122 19.2251C20.1229 19.2251 20.1229 17.972 22.7335 17.972C25.344 17.972 25.344 19.2251 27.9545 19.2251C30.565 19.2251 30.565 17.972 33.1756 17.972C33.733 17.972 34.1849 17.52 34.1849 16.9626C34.1849 16.4052 33.733 15.9533 33.1756 15.9533H17.5057H7.56588" fill="#08AA6E"/>
<path d="M32.581 17.9968C30.5487 18.1709 30.3497 19.225 27.9545 19.225C25.3441 19.225 25.3441 17.9719 22.7335 17.9719C20.123 17.9719 20.123 19.225 17.5122 19.225C17.5101 19.225 17.5079 19.2249 17.5058 19.2249C17.5036 19.2249 17.5014 19.225 17.4993 19.225C14.8887 19.225 14.8887 17.9719 12.278 17.9719C9.66739 17.9719 9.66739 19.225 7.05695 19.225C4.65884 19.225 4.46223 18.1683 2.4226 17.9962C1.34375 18.1706 0.519745 19.1059 0.519745 20.234C0.519745 21.4862 1.53488 22.5013 2.78709 22.5013H32.2128C33.465 22.5013 34.4801 21.4862 34.4801 20.234C34.4802 19.1071 33.6581 18.1727 32.581 17.9968Z" fill="#D53349"/>
<path d="M35 20.2341C35 19.4248 34.6583 18.6907 34.1007 18.1791C34.4673 17.8995 34.7046 17.4584 34.7046 16.9627C34.7046 16.2964 34.276 15.7285 33.6801 15.5195C33.4515 9.70768 28.653 5.0498 22.7861 5.0498H12.2139C6.34573 5.0498 1.54636 9.70973 1.31961 15.5235C0.729805 15.7357 0.306797 16.3006 0.306797 16.9627C0.306797 17.4554 0.54127 17.8941 0.904326 18.174C0.343643 18.6857 0 19.4217 0 20.2341C0 21.2313 0.526709 22.1072 1.31612 22.5999V25.7899C1.31612 28.084 3.18247 29.9503 5.47654 29.9503H29.5233C31.8174 29.9503 33.6837 28.0839 33.6837 25.7899V22.5999C34.4733 22.1072 35 21.2312 35 20.2341ZM12.2139 6.08935H22.7861C28.0507 6.08935 32.3654 10.235 32.6364 15.4335H7.56588H7.56581V16.4731H7.56588H33.1756C33.4455 16.4731 33.6651 16.6926 33.6651 16.9625C33.6651 17.2325 33.4455 17.4521 33.1756 17.4521C32.9707 17.4521 32.7802 17.4598 32.6015 17.4735L32.601 17.4734L32.5891 17.4744C31.5334 17.5574 30.9045 17.8589 30.3401 18.1298C29.6969 18.4385 29.1415 18.7051 27.9546 18.7051C27.8062 18.7051 27.6678 18.701 27.5378 18.6931C26.6275 18.6379 26.1319 18.3999 25.5691 18.1298C24.9074 17.8122 24.1572 17.452 22.7337 17.452C22.4667 17.452 22.2235 17.4648 22 17.4874C21.0318 17.5856 20.4358 17.8716 19.898 18.1298C19.7424 18.2045 19.5918 18.2767 19.4361 18.3433C18.9558 18.5489 18.4265 18.7003 17.55 18.7047C17.5377 18.7047 17.5263 18.7051 17.5139 18.7051L17.5058 18.705L17.4923 18.7051C17.4594 18.7051 17.4288 18.7041 17.3969 18.7037C17.3571 18.7032 17.3162 18.7031 17.2778 18.7019C17.267 18.7016 17.2573 18.7009 17.2467 18.7005C16.7781 18.6842 16.414 18.6226 16.1003 18.5326C15.7337 18.4274 15.4346 18.2838 15.1136 18.1298C14.4519 17.8122 13.7017 17.452 12.278 17.452C10.8544 17.452 10.1043 17.8121 9.44255 18.1298C8.87975 18.3999 8.38414 18.6379 7.47394 18.6931C7.34392 18.701 7.20542 18.7051 7.05708 18.7051C5.87016 18.7051 5.31467 18.4385 4.67161 18.1298C4.10601 17.8584 3.47553 17.5561 2.41568 17.4739L2.40283 17.4728L2.40235 17.4729C2.22592 17.4596 2.03807 17.4521 1.8362 17.4521C1.56625 17.4521 1.34668 17.2325 1.34668 16.9625C1.34668 16.6926 1.56625 16.4731 1.8362 16.4731H6.05603H6.05609V15.4335H6.05603H2.36359C2.63464 10.2351 6.94921 6.08935 12.2139 6.08935ZM16.5845 23.0211L11.3706 25.8385L6.15658 23.0212H16.5845V23.0211V23.0211ZM32.6443 23.0211V24.2466H21.5573V25.2862H32.6442V25.7899C32.6442 27.5107 31.2442 28.9106 29.5234 28.9106H5.47661C3.7558 28.9106 2.3558 27.5106 2.3558 25.7899V23.0211H2.78715H3.96963L11.3706 27.0201L18.7714 23.0211H32.2129H32.6443ZM32.2129 21.9815H20.6954L20.6955 21.9815H2.78448C1.82205 21.98 1.03961 21.1967 1.03961 20.234C1.03961 19.3926 1.62709 18.6813 2.44515 18.5201C3.23948 18.597 3.71649 18.8257 4.22071 19.0675C4.84107 19.365 5.53909 19.6995 6.79533 19.7406C6.87996 19.7434 6.96705 19.7448 7.05688 19.7448C8.48039 19.7448 9.2305 19.3848 9.89229 19.0671C10.5355 18.7583 11.0909 18.4917 12.2779 18.4917C12.5746 18.4917 12.8319 18.5084 13.061 18.5382C13.1756 18.5531 13.283 18.5714 13.3848 18.5923C13.4357 18.6029 13.4853 18.6141 13.5335 18.626C13.9678 18.733 14.3019 18.8934 14.6636 19.0671C15.098 19.2756 15.5703 19.5023 16.2461 19.6335C16.3426 19.6523 16.4433 19.669 16.5486 19.6836C16.6188 19.6933 16.6912 19.702 16.7655 19.7095C16.989 19.7322 17.2322 19.7448 17.4992 19.7448H17.5122C17.8236 19.7448 18.1029 19.7276 18.3559 19.6973C19.2237 19.5936 19.7846 19.3369 20.2855 19.0969C20.3064 19.0869 20.3271 19.0769 20.3478 19.067C20.991 18.7583 21.5465 18.4917 22.7335 18.4917C23.0302 18.4917 23.2875 18.5084 23.5165 18.5382C23.631 18.5531 23.7385 18.5714 23.8403 18.5923C23.8912 18.6029 23.9408 18.6141 23.989 18.626C24.4233 18.733 24.7573 18.8934 25.1191 19.0671C25.5534 19.2756 26.0257 19.5023 26.7014 19.6335C26.798 19.6523 26.8987 19.669 27.004 19.6836C27.0742 19.6933 27.1465 19.702 27.2209 19.7095C27.4444 19.7322 27.6875 19.7448 27.9545 19.7448C28.0435 19.7448 28.1297 19.7434 28.2136 19.7406C29.4714 19.7 30.1698 19.3651 30.7906 19.0674C31.2933 18.8265 31.7687 18.5985 32.5583 18.5208C33.3743 18.6834 33.9603 19.3942 33.9603 20.2339C33.9604 21.1976 33.1764 21.9815 32.2129 21.9815Z" fill="#53180F"/>
<path d="M13.1625 7.31476H11.539V8.35437H13.1625V7.31476Z" fill="#53180F"/>
<path d="M15.7372 9.57971H14.1137V10.6193H15.7372V9.57971Z" fill="#53180F"/>
<path d="M10.587 9.57971H8.9635V10.6193H10.587V9.57971Z" fill="#53180F"/>
<path d="M26.0363 9.57971H24.4128V10.6193H26.0363V9.57971Z" fill="#53180F"/>
<path d="M20.8867 9.57971H19.2633V10.6193H20.8867V9.57971Z" fill="#53180F"/>
<path d="M18.312 7.31476H16.6885V8.35437H18.312V7.31476Z" fill="#53180F"/>
<path d="M23.4615 7.31476H21.838V8.35437H23.4615V7.31476Z" fill="#53180F"/>
</svg>
