<svg width="35" height="35" viewBox="0 0 35 35" fill="none" xmlns="http://www.w3.org/2000/svg">
<path d="M30.4839 18.629H28.7903V15.242H26.1387L22.7517 12.9839H19.1936V9.59671H23.7097V8.46765H10.1613V9.59671H14.6774V12.9838H11.0814L7.12986 16.3708H3.95157V19.7578H1.12906V14.6775H0V28.7904H1.12906V24.2743H3.95169V28.7904H7.18866L11.1402 31.0485H17.5001V29.9195H11.4405L7.90327 27.8984V17.1952L11.4992 14.1129H22.4096L25.4031 16.1085V18.0645H26.5322V16.3709H27.6613V29.9193H26.5322V31.0484H28.7903V28.2258H30.4839V29.3548H35V16.9354H30.4839V18.629V18.629ZM3.95169 23.1451H1.12906V20.887H3.95169V23.1451V23.1451ZM6.77421 27.6612H5.08063V17.5H6.77421V27.6612ZM18.0645 12.9838H15.8064V9.59671H18.0645V12.9838ZM30.4839 27.0967H28.7903V19.758H30.4839V27.0967ZM31.613 18.0645H33.8711V28.2258H31.613V18.0645Z" fill="black"/>
<path d="M22.8144 20.8871H18.5969L21.4196 16.9355H16.0217L12.6344 23.7097H16.1864L14.665 29.0364L22.8144 20.8871ZM14.4617 22.5806L16.7198 18.0645H19.2251L16.4025 22.0161H20.0882L16.9472 25.1571L17.6839 22.5806H14.4617Z" fill="black"/>
<path d="M7.90316 3.38702H4.51611V4.51608H7.90316V3.38702Z" fill="black"/>
<path d="M3.38705 3.38702H0V4.51608H3.38705V3.38702Z" fill="black"/>
<path d="M4.51611 4.51611H3.38705V7.90316H4.51611V4.51611Z" fill="black"/>
<path d="M4.51611 0H3.38705V3.38705H4.51611V0Z" fill="black"/>
<path d="M32.742 8.46777V6.20966H31.613V8.46777H32.7419V9.5967H31.613V8.46777H29.3549V9.59682H31.613V11.8548H32.742V9.59682H35V8.46777H32.742Z" fill="black"/>
<path d="M25.4033 29.9194H22.5806V31.0484H25.4033V29.9194Z" fill="black"/>
<path d="M21.4517 29.9194H22.5806V27.0967H21.4516V29.9194H18.6291V31.0484H21.4516V33.8711H22.5806V31.0484H21.4517V29.9194Z" fill="black"/>
<path d="M33.8709 31.613H32.7419V32.7419H31.6129V33.871H32.7419V35H33.8709V33.871H32.742V32.742H33.8709V33.871H35V32.7419H33.8709V31.613Z" fill="black"/>
</svg>
