<svg width="35" height="35" viewBox="0 0 35 35" fill="none" xmlns="http://www.w3.org/2000/svg">
<path d="M18.7226 11.2482L20.4717 12.9973L17.6151 15.854L15.8659 14.1048L14.3352 15.6357L16.0843 17.3848L12.9973 20.4717L11.2482 18.7226L9.71735 20.2535L14.7465 25.2826L16.2774 23.7518L14.5282 22.0026L17.6151 18.9156L19.3643 20.6648L20.8951 19.1339L19.146 17.3848L22.0026 14.5282L23.7518 16.2774L25.2826 14.7464L20.2534 9.71735L18.7226 11.2482Z" fill="black"/>
<path d="M34.3639 1.46329L34.2158 0.784289L33.5368 0.636206C31.6004 0.214041 29.6118 0 27.6265 0C24.0388 0 20.5412 0.680588 17.2311 2.02293C13.8034 3.4129 10.7285 5.45466 8.09156 8.09157C4.75948 11.4236 2.32363 15.5671 1.04732 20.0743C-0.189589 24.4418 -0.331681 29.097 0.636195 33.5367L0.784277 34.2157L1.46328 34.3637C3.39953 34.7859 5.38804 34.9999 7.37344 34.9999C10.9614 34.9999 14.4589 34.3193 17.7689 32.9771C21.1965 31.5871 24.2715 29.5453 26.9084 26.9084C30.2405 23.5764 32.6763 19.4328 33.9527 14.9257C35.1896 10.5582 35.3317 5.90295 34.3639 1.46329ZM32.3886 2.61165C32.8847 5.22301 32.9681 7.84989 32.6636 10.4108L24.5963 2.34341C25.5946 2.22578 26.6058 2.16495 27.6265 2.16495C29.223 2.16495 30.8216 2.31505 32.3886 2.61165ZM7.37344 32.8351C5.77686 32.8351 4.17819 32.6849 2.61135 32.3883C2.11529 29.777 2.03186 27.1501 2.3364 24.5892L10.4038 32.6566C9.40539 32.7742 8.39414 32.8351 7.37344 32.8351ZM25.3776 25.3776C21.9285 28.8266 17.6642 31.164 13.0192 32.2104L2.78642 21.9775C3.83101 17.3729 6.15905 13.0857 9.62239 9.6224C13.0714 6.17335 17.3358 3.83607 21.9809 2.78968L32.2136 13.0225C31.169 17.6272 28.8409 21.9143 25.3776 25.3776Z" fill="black"/>
</svg>
