<svg width="35" height="35" viewBox="0 0 35 35" fill="none" xmlns="http://www.w3.org/2000/svg">
<g clip-path="url(#clip0_103_260)">
<path d="M12.8451 3.79987C12.9241 3.79987 13.0033 3.77129 13.066 3.71348C13.1019 3.68026 13.9411 2.88895 13.4658 1.8707C13.1655 1.22702 13.5829 0.498082 13.5864 0.491812C13.6783 0.337182 13.6273 0.13736 13.4727 0.0454284C13.3181 -0.0460957 13.1182 0.00455195 13.0263 0.159264C13.0016 0.200791 12.4279 1.18687 12.8755 2.14609C13.1467 2.72731 12.648 3.21197 12.6228 3.23583C12.4918 3.35797 12.4839 3.56324 12.6056 3.69499C12.6699 3.76461 12.7573 3.79987 12.8451 3.79987Z" fill="black"/>
<path d="M15.8244 10.8358C15.7169 10.9506 15.6254 11.0808 15.5532 11.2232H14.338C14.2173 11.2232 14.1131 11.2896 14.0569 11.3872C13.7753 9.3492 14.244 7.04221 14.2498 7.0146C14.2632 6.94954 14.2565 6.88188 14.2306 6.8208L13.6877 5.54517C13.6172 5.37963 13.4261 5.30243 13.2604 5.37303C13.0949 5.44346 13.0179 5.63474 13.0883 5.80028L13.5919 6.98366C13.4778 7.58264 12.9652 10.588 13.704 12.7534C13.7502 12.8888 13.8768 12.974 14.0122 12.974C14.0471 12.974 14.0826 12.9684 14.1175 12.9565C14.2877 12.8984 14.3786 12.7133 14.3205 12.543C14.239 12.3041 14.1744 12.0521 14.1238 11.7926C14.1811 11.843 14.2556 11.8747 14.338 11.8747H15.3753C15.3727 11.9129 15.3696 11.9511 15.3696 11.99C15.3696 12.1699 15.5155 12.3158 15.6953 12.3158C15.8752 12.3158 16.0211 12.1699 16.0211 11.99C16.0211 11.4293 16.4586 10.9732 16.9966 10.9723C16.9972 10.9723 16.9977 10.9725 16.9982 10.9725C16.9988 10.9725 16.9992 10.9723 16.9997 10.9723C17.5378 10.9732 17.9753 11.4293 17.9753 11.99C17.9753 11.9931 17.9754 11.997 17.9755 12C17.9811 12.2017 17.9311 12.7915 17.6361 13.0949C17.5021 13.2326 17.3289 13.2996 17.1065 13.2996C16.9266 13.2996 16.7808 13.4455 16.7808 13.6253C16.7808 13.8052 16.9266 13.9511 17.1065 13.9511C17.3464 13.9511 17.5619 13.9018 17.7524 13.8062L18.4036 14.9616C16.8687 17.0889 15.9142 17.834 15.6713 17.942L15.6015 17.9729C14.8177 18.3204 13.5057 18.902 13.2367 19.8736C13.117 20.3056 13.2152 20.7503 13.5287 21.1955C13.5921 21.2858 13.6929 21.3338 13.7952 21.3338C13.86 21.3338 13.9254 21.3146 13.9824 21.2745C14.1295 21.171 14.1648 20.9677 14.0613 20.8207C13.8628 20.5386 13.7984 20.2857 13.8645 20.0473C14.0513 19.3726 15.2315 18.8495 15.8655 18.5684L15.9358 18.5372C16.9646 18.08 18.8436 15.4677 19.0545 15.1713C19.1277 15.0684 19.1349 14.9325 19.0729 14.8226L18.2523 13.3667C18.6345 12.8173 18.6285 12.0685 18.6266 11.9855C18.6265 11.948 18.6233 11.9115 18.6208 11.8747H19.6574C19.8373 11.8747 19.9831 11.7288 19.9831 11.549C19.9831 11.3691 19.8373 11.2232 19.6574 11.2232H18.4429C18.3706 11.0808 18.2791 10.9506 18.1716 10.8359L19.1093 9.89826C19.2365 9.77116 19.2365 9.56482 19.1093 9.43771C18.9821 9.31052 18.7759 9.31052 18.6486 9.43771L17.6331 10.4532C17.5345 10.4102 17.431 10.3769 17.3236 10.3544V8.88873C17.3236 8.70886 17.1778 8.56302 16.9979 8.56302C16.8181 8.56302 16.6722 8.70886 16.6722 8.88873V10.3544C16.5649 10.3768 16.4613 10.4102 16.3627 10.4531L15.3473 9.43771C15.2201 9.31044 15.0139 9.31044 14.8867 9.43771C14.7595 9.5649 14.7595 9.77116 14.8867 9.89826L15.8244 10.8358Z" fill="black"/>
<path d="M12.764 7.32844C12.8222 7.32844 12.8812 7.3128 12.9343 7.27999C13.0876 7.18578 13.1353 6.98514 13.0411 6.8319L12.6068 6.12617C12.5126 5.973 12.312 5.9252 12.1587 6.0195C12.0055 6.11371 11.9578 6.31434 12.052 6.46759L12.4863 7.17332C12.5478 7.27331 12.6546 7.32844 12.764 7.32844Z" fill="black"/>
<path d="M14.4736 4.63743C14.4715 4.45764 14.322 4.31066 14.1442 4.31555L11.8099 4.34266C11.63 4.34478 11.4859 4.49233 11.488 4.6722C11.49 4.85069 11.6355 4.99408 11.8135 4.99408C11.8148 4.99408 11.8162 4.99408 11.8174 4.99408L14.1516 4.96697C14.3315 4.96477 14.4757 4.8173 14.4736 4.63743Z" fill="black"/>
<path d="M13.0618 15.5438C13.1262 15.621 13.2188 15.6609 13.3122 15.6609C13.3864 15.6609 13.4612 15.6357 13.5224 15.5839C13.661 15.4667 13.6682 15.254 13.552 15.1145L13.3197 14.8357C14.1009 14.6328 15.0049 13.9467 15.3508 13.6665C15.4722 13.5683 15.5149 13.3968 15.442 13.2588C15.3425 13.0704 15.1038 13.0282 14.9471 13.1553C14.1657 13.7887 13.2815 14.2568 12.9207 14.2506C12.8629 14.2496 12.8089 14.2227 12.7719 14.1783C12.7211 14.0747 12.6522 13.7482 12.9583 12.823C13.0136 12.6562 12.9392 12.4647 12.776 12.3999C12.6008 12.3304 12.4051 12.4227 12.3462 12.5994C12.1135 13.2975 11.8699 14.2571 12.3559 14.6965L13.0618 15.5438Z" fill="black"/>
<path d="M14.9229 14.8766C14.2561 16.0563 13.3744 16.8447 13.3623 16.8555C13.2276 16.9745 13.2147 17.1802 13.3337 17.3151C13.3981 17.3881 13.4878 17.4254 13.578 17.4254C13.6546 17.4254 13.7315 17.3985 13.7934 17.3439C13.8327 17.3092 14.7656 16.4786 15.49 15.1971C15.5785 15.0405 15.5233 14.8419 15.3667 14.7534C15.2101 14.6646 15.0115 14.7199 14.9229 14.8766Z" fill="black"/>
<path d="M13.9036 24.4282C14.0319 24.4282 14.1535 24.3518 14.2052 24.2257L15.6709 20.6429C15.739 20.4764 15.6592 20.2862 15.4927 20.2181C15.3261 20.15 15.136 20.2299 15.0679 20.3963L13.6022 23.9791C13.5341 24.1456 13.6138 24.3358 13.7804 24.4039C13.8208 24.4203 13.8624 24.4282 13.9036 24.4282Z" fill="black"/>
<path d="M18.9569 18.7485C18.7883 18.6862 18.6008 18.7717 18.5382 18.9404C18.5241 18.9784 17.1114 22.7799 15.7171 26.3729C15.3128 27.4149 15.0618 27.6595 14.9831 27.7142C14.8367 27.5622 14.6632 26.8925 14.6082 26.2462C14.593 26.067 14.4359 25.9345 14.2561 25.9493C14.0769 25.9646 13.944 26.122 13.959 26.3012C13.9982 26.7647 14.0943 27.4325 14.3287 27.8849L13.6935 30.9022C13.6565 31.0783 13.7691 31.251 13.9451 31.288C13.9678 31.2928 13.9903 31.2951 14.0125 31.2951C14.1633 31.2951 14.2987 31.1898 14.3309 31.0364L14.8917 28.3727C14.8919 28.3727 14.892 28.3728 14.8923 28.3728C14.9216 28.3771 14.9507 28.3791 14.9796 28.3791C15.4394 28.3791 15.8469 27.8393 16.3244 26.6087C17.7206 23.011 19.1348 19.2052 19.1489 19.1672C19.2115 18.9986 19.1255 18.8111 18.9569 18.7485Z" fill="black"/>
<path d="M23.5003 17.61C23.4753 17.5196 23.4126 17.4444 23.3282 17.4035L21.6453 16.5892C21.4952 16.5165 21.3145 16.569 21.2266 16.7108L20.7368 17.5007C20.4979 17.2296 20.1006 16.5221 19.8182 15.9054C19.7433 15.7419 19.5499 15.67 19.3864 15.7448C19.2229 15.8197 19.151 16.013 19.2258 16.1765C19.3907 16.5369 19.9245 17.6528 20.3867 18.0654L19.8803 18.8821C19.8455 18.9381 19.8286 19.0035 19.8318 19.0694L20.1914 26.5286L16.9797 28.4505C16.8253 28.5429 16.7751 28.7429 16.8674 28.8972C16.9284 28.9992 17.0365 29.0557 17.1472 29.0557C17.2041 29.0557 17.2618 29.0407 17.3141 29.0095L20.6934 26.9874C20.7965 26.9257 20.8573 26.8122 20.8514 26.6922L20.6243 21.9821C20.7143 21.9698 20.7987 21.9202 20.8525 21.8383L21.3694 21.0522C21.3746 21.1484 21.4207 21.2413 21.5053 21.3012C21.5624 21.3415 21.628 21.3608 21.6929 21.3608C21.7951 21.3608 21.8958 21.3127 21.9592 21.2229L22.9363 19.8387C23.0401 19.6917 23.005 19.4884 22.8581 19.3848C22.7289 19.2936 22.5562 19.3099 22.4458 19.4151L23.4581 17.8755C23.51 17.7973 23.5252 17.7005 23.5003 17.61ZM20.5804 21.0671L20.4874 19.1394L21.6257 17.3034L22.7101 17.8281L20.5804 21.0671Z" fill="black"/>
<path d="M13.931 32.9236C13.9979 32.9236 14.0654 32.9031 14.1235 32.8605L17.9505 30.0513C18.0955 29.9448 18.1268 29.741 18.0204 29.5959C17.914 29.4511 17.7102 29.4197 17.5651 29.5261L13.7381 32.3354C13.593 32.4419 13.5618 32.6456 13.6682 32.7907C13.732 32.8776 13.8309 32.9236 13.931 32.9236Z" fill="black"/>
<path d="M20.735 30.8544C20.6798 29.2705 20.7293 27.7788 20.7297 27.764C20.7359 27.5842 20.5951 27.4335 20.4153 27.4274C20.2338 27.4231 20.0848 27.562 20.0787 27.7419C20.0782 27.7569 20.0281 29.2678 20.0838 30.8737C20.1511 32.8136 20.3268 33.8048 20.5139 34.3412C18.541 34.3208 14.9769 34.3345 13.2501 34.3431L13.3112 34.2974C13.4554 34.1898 13.4851 33.9858 13.3775 33.8416C13.27 33.6974 13.0658 33.6677 12.9217 33.7752L12.0667 34.413C11.9539 34.4972 11.9079 34.6443 11.9526 34.7778C11.9972 34.9105 12.1215 34.9999 12.2614 34.9999C12.2621 34.9999 12.2629 34.9999 12.2635 34.9999C12.3278 34.9996 18.7194 34.9597 21.05 34.9998C21.0519 34.9999 21.0537 34.9999 21.0556 34.9999C21.1835 34.9999 21.2997 34.925 21.3524 34.8081C21.4059 34.6896 21.3838 34.5506 21.2962 34.4545C21.1599 34.3054 20.8324 33.6558 20.735 30.8544Z" fill="black"/>
</g>
<defs>
<clipPath id="clip0_103_260">
<rect width="35" height="35" fill="white"/>
</clipPath>
</defs>
</svg>
